<svg xmlns="http://www.w3.org/2000/svg" viewBox="0 0 32 32" fill="none">
  <circle cx="16" cy="16" r="16" fill="#F7931A"></circle>
  <path d="M21.9 14.2c.3-1.9-1.1-2.9-3.1-3.6l.6-2.6-1.6-.4-.6 2.5c-.4-.1-.9-.2-1.3-.3l.6-2.5-1.6-.4-.6 2.6c-.4-.1-.7-.2-1-.2v0l-2.2-.5-.4 1.7s1.2.3 1.2.3c.6.2.8.6.7 1l-.7 2.9c0 0 .1 0 .1 0l-.1 0-1 4.1c-.1.2-.3.5-.7.4 0 0-1.2-.3-1.2-.3l-.8 1.8 2.1.5c.4.1.8.2 1.1.3l-.6 2.6 1.6.4.6-2.6c.4.1.9.2 1.3.3l-.6 2.6 1.6.4.6-2.6c2.7.5 4.7.3 5.6-2.2.7-2-.1-3.1-1.5-3.9 1-.2 1.8-.9 2-2.3zm-3.6 5.1c-.5 2-3.9.9-5 .7l.9-3.5c1.1.3 4.6.8 4.1 2.8zm.5-5.1c-.5 1.9-3.3.9-4.2.7l.8-3.2c.9.2 3.9.6 3.4 2.5z" fill="#FFF"></path>
</svg>